<svg xmlns="http://www.w3.org/2000/svg" viewBox="0 0 1000 420" role="img" aria-labelledby="wordmark-title" focusable="false">
  <title id="wordmark-title">To Serve Man</title>
  <g fill="none" stroke="#111111" stroke-width="18" stroke-linecap="square" stroke-linejoin="miter">
    <!-- TO SERVE — two words on the first line -->
    <g transform="translate(40 38) scale(.84)">
      <g transform="translate(-324 -28)">
        <path d="M324 28H446M385 28V132"/>
        <path d="M510 28L574 49 594 89 566 132H500L474 91 492 49Z"/>
      </g>
      <g transform="translate(340 -171)">
        <path d="M230 171H116L88 197 112 224H210L234 250 204 291H82"/>
        <path d="M370 171H274V291H376M274 227H352"/>
        <path d="M420 291V171H509L541 199 512 229H420M489 229L548 291"/>
        <path d="M578 171L636 291 700 171"/>
        <path d="M828 171H738V291H838M738 227H816"/>
      </g>
    </g>

    <!-- MAN — one word on the second line -->
    <g transform="translate(-212 -208) scale(1.42)">
      <path d="M262 430V326L332 382 402 326V430"/>
      <path d="M440 430L505 326 574 430M466 391H548"/>
      <path d="M614 430V326L754 430V326"/>
    </g>
  </g>
</svg>
